<mxfile host="app.diagrams.net" modified="2020-12-16T11:31:11.291Z" agent="5.0 (Windows)" etag="Q0bxiC6m6AbNoRWw-3uU" version="14.0.1" type="github">
  <diagram name="Page-1" id="e7e014a7-5840-1c2e-5031-d8a46d1fe8dd">
    <mxGraphModel dx="1806" dy="909" grid="1" gridSize="10" guides="1" tooltips="1" connect="1" arrows="1" fold="1" page="1" pageScale="1" pageWidth="1169" pageHeight="826" background="#ffffff" math="0" shadow="0">
      <root>
        <mxCell id="0" />
        <mxCell id="1" parent="0" />
        <mxCell id="zklzWbhGourd4f5qVYVP-41" value="" style="ellipse;fillColor=#000000;strokeColor=none;aspect=fixed;" parent="1" vertex="1">
          <mxGeometry x="565" y="40" width="40" height="41.03" as="geometry" />
        </mxCell>
        <mxCell id="zklzWbhGourd4f5qVYVP-42" value="" style="endArrow=open;endFill=1;endSize=12;html=1;fontSize=21;exitX=0.5;exitY=1;exitDx=0;exitDy=0;entryX=0.5;entryY=0;entryDx=0;entryDy=0;" parent="1" source="zklzWbhGourd4f5qVYVP-41" target="zklzWbhGourd4f5qVYVP-44" edge="1">
          <mxGeometry width="160" relative="1" as="geometry">
            <mxPoint x="586.75" y="413" as="sourcePoint" />
            <mxPoint x="586.75" y="483" as="targetPoint" />
          </mxGeometry>
        </mxCell>
        <mxCell id="zklzWbhGourd4f5qVYVP-43" value="" style="endArrow=open;endFill=1;endSize=12;html=1;fontSize=21;exitX=0.5;exitY=1;exitDx=0;exitDy=0;entryX=0.5;entryY=0;entryDx=0;entryDy=0;" parent="1" source="zklzWbhGourd4f5qVYVP-57" target="zklzWbhGourd4f5qVYVP-50" edge="1">
          <mxGeometry width="160" relative="1" as="geometry">
            <mxPoint x="586.75" y="440" as="sourcePoint" />
            <mxPoint x="586.75" y="510" as="targetPoint" />
          </mxGeometry>
        </mxCell>
        <mxCell id="zklzWbhGourd4f5qVYVP-44" value="&lt;span style=&quot;font-size: 19px&quot;&gt;انتخاب کلید مدیریت رستوران&lt;/span&gt;" style="shape=rect;html=1;rounded=1;whiteSpace=wrap;align=center;fontSize=21;fontStyle=1" parent="1" vertex="1">
          <mxGeometry x="498" y="150" width="174" height="70" as="geometry" />
        </mxCell>
        <mxCell id="zklzWbhGourd4f5qVYVP-45" value="" style="ellipse;html=1;shape=endState;fillColor=#000000;strokeColor=#000000;aspect=fixed;" parent="1" vertex="1">
          <mxGeometry x="564" y="740" width="43.5" height="43.5" as="geometry" />
        </mxCell>
        <mxCell id="zklzWbhGourd4f5qVYVP-46" value="&lt;span style=&quot;font-size: 19px&quot;&gt;انجام فعالیت ثبت نام فروشنده&lt;br&gt;&lt;/span&gt;" style="shape=rect;html=1;rounded=1;whiteSpace=wrap;align=center;fontSize=21;fontStyle=1" parent="1" vertex="1">
          <mxGeometry x="682" y="520" width="174" height="70" as="geometry" />
        </mxCell>
        <mxCell id="zklzWbhGourd4f5qVYVP-47" value="" style="endArrow=open;endFill=1;endSize=12;html=1;fontSize=21;entryX=0.5;entryY=0;entryDx=0;entryDy=0;exitX=0.5;exitY=1;exitDx=0;exitDy=0;" parent="1" source="zklzWbhGourd4f5qVYVP-54" target="zklzWbhGourd4f5qVYVP-45" edge="1">
          <mxGeometry width="160" relative="1" as="geometry">
            <mxPoint x="600.75" y="620" as="sourcePoint" />
            <mxPoint x="584.75" y="723" as="targetPoint" />
          </mxGeometry>
        </mxCell>
        <mxCell id="zklzWbhGourd4f5qVYVP-49" value="" style="endArrow=open;endFill=1;endSize=12;html=1;fontSize=21;exitX=0.5;exitY=1;exitDx=0;exitDy=0;entryX=0.5;entryY=0;entryDx=0;entryDy=0;" parent="1" source="zklzWbhGourd4f5qVYVP-44" target="zklzWbhGourd4f5qVYVP-57" edge="1">
          <mxGeometry width="160" relative="1" as="geometry">
            <mxPoint x="583.25" y="240" as="sourcePoint" />
            <mxPoint x="586.75" y="240" as="targetPoint" />
          </mxGeometry>
        </mxCell>
        <mxCell id="zklzWbhGourd4f5qVYVP-50" value="" style="rhombus;" parent="1" vertex="1">
          <mxGeometry x="538.5" y="400" width="93" height="85" as="geometry" />
        </mxCell>
        <mxCell id="zklzWbhGourd4f5qVYVP-51" value="&lt;font style=&quot;font-size: 16px&quot;&gt;[انتخاب حذف کردن رستوران]&lt;/font&gt;" style="endArrow=open;endFill=1;endSize=12;html=1;fontSize=21;exitX=0;exitY=0.5;exitDx=0;exitDy=0;entryX=0.5;entryY=0;entryDx=0;entryDy=0;" parent="1" source="zklzWbhGourd4f5qVYVP-50" target="zklzWbhGourd4f5qVYVP-53" edge="1">
          <mxGeometry x="0.4661" width="160" relative="1" as="geometry">
            <mxPoint x="596.75" y="320" as="sourcePoint" />
            <mxPoint x="596.75" y="380" as="targetPoint" />
            <Array as="points">
              <mxPoint x="400.75" y="443" />
            </Array>
            <mxPoint as="offset" />
          </mxGeometry>
        </mxCell>
        <mxCell id="zklzWbhGourd4f5qVYVP-52" value="&lt;font style=&quot;font-size: 16px&quot;&gt;[انتخاب اضافه کردن رستوران]&lt;/font&gt;" style="endArrow=open;endFill=1;endSize=12;html=1;fontSize=21;exitX=1;exitY=0.5;exitDx=0;exitDy=0;entryX=0.5;entryY=0;entryDx=0;entryDy=0;" parent="1" source="zklzWbhGourd4f5qVYVP-50" target="zklzWbhGourd4f5qVYVP-46" edge="1">
          <mxGeometry x="0.4649" width="160" relative="1" as="geometry">
            <mxPoint x="662.75" y="340" as="sourcePoint" />
            <mxPoint x="772.75" y="630" as="targetPoint" />
            <Array as="points">
              <mxPoint x="768.75" y="443" />
            </Array>
            <mxPoint as="offset" />
          </mxGeometry>
        </mxCell>
        <mxCell id="zklzWbhGourd4f5qVYVP-53" value="&lt;span style=&quot;font-size: 19px&quot;&gt;انجام فعالیت حذف رستوران&lt;/span&gt;" style="shape=rect;html=1;rounded=1;whiteSpace=wrap;align=center;fontSize=21;fontStyle=1" parent="1" vertex="1">
          <mxGeometry x="314" y="520" width="174" height="70" as="geometry" />
        </mxCell>
        <mxCell id="zklzWbhGourd4f5qVYVP-54" value="" style="rhombus;" parent="1" vertex="1">
          <mxGeometry x="538.5" y="600" width="93" height="85" as="geometry" />
        </mxCell>
        <mxCell id="zklzWbhGourd4f5qVYVP-55" value="" style="endArrow=open;endFill=1;endSize=12;html=1;fontSize=21;exitX=0.5;exitY=1;exitDx=0;exitDy=0;entryX=1;entryY=0.5;entryDx=0;entryDy=0;" parent="1" source="zklzWbhGourd4f5qVYVP-46" target="zklzWbhGourd4f5qVYVP-54" edge="1">
          <mxGeometry width="160" relative="1" as="geometry">
            <mxPoint x="634.5" y="782.5" as="sourcePoint" />
            <mxPoint x="776" y="710" as="targetPoint" />
            <Array as="points">
              <mxPoint x="768.75" y="643" />
            </Array>
          </mxGeometry>
        </mxCell>
        <mxCell id="zklzWbhGourd4f5qVYVP-56" value="" style="endArrow=open;endFill=1;endSize=12;html=1;fontSize=21;exitX=0.5;exitY=1;exitDx=0;exitDy=0;entryX=0;entryY=0.5;entryDx=0;entryDy=0;" parent="1" source="zklzWbhGourd4f5qVYVP-53" target="zklzWbhGourd4f5qVYVP-54" edge="1">
          <mxGeometry width="160" relative="1" as="geometry">
            <mxPoint x="780.5799999999999" y="640" as="sourcePoint" />
            <mxPoint x="780.5799999999999" y="710" as="targetPoint" />
            <Array as="points">
              <mxPoint x="401.75" y="643" />
            </Array>
          </mxGeometry>
        </mxCell>
        <mxCell id="zklzWbhGourd4f5qVYVP-57" value="&lt;span style=&quot;font-size: 19px&quot;&gt;انتخاب عملیات مورد نظر&lt;/span&gt;" style="shape=rect;html=1;rounded=1;whiteSpace=wrap;align=center;fontSize=21;fontStyle=1" parent="1" vertex="1">
          <mxGeometry x="497.75" y="270" width="174" height="70" as="geometry" />
        </mxCell>
        <mxCell id="zklzWbhGourd4f5qVYVP-59" value="&lt;b&gt;&lt;font style=&quot;font-size: 34px&quot;&gt;مدیریت رستوران&lt;/font&gt;&lt;/b&gt;" style="text;html=1;strokeColor=none;fillColor=none;align=center;verticalAlign=middle;whiteSpace=wrap;rounded=0;" parent="1" vertex="1">
          <mxGeometry x="20" y="20" width="230" height="70" as="geometry" />
        </mxCell>
      </root>
    </mxGraphModel>
  </diagram>
</mxfile>
